<svg xmlns="http://www.w3.org/2000/svg" xmlns:xlink="http://www.w3.org/1999/xlink" width="130" zoomAndPan="magnify" viewBox="0 0 2160 719.999996" height="100" preserveAspectRatio="xMidYMid meet" version="1.0"><defs><g/></defs><path fill="#000000" d="M 0 0 L 1080 0 L 1080 735.75 L 0 735.75 Z M 0 0 " fill-opacity="1" fill-rule="nonzero"/><g fill="#ffffff" fill-opacity="1"><g transform="translate(49.481961, 480.395849)"><g><path d="M 237.75 -169.4375 C 237.75 -153.195312 233.859375 -139.101562 226.078125 -127.15625 C 218.296875 -115.207031 207.359375 -106.019531 193.265625 -99.59375 C 179.179688 -93.164062 163.007812 -89.953125 144.75 -89.953125 L 98.40625 -89.953125 C 95.707031 -89.953125 94.359375 -88.710938 94.359375 -86.234375 L 94.359375 -9.8125 C 94.359375 -6.195312 93.453125 -3.65625 91.640625 -2.1875 C 89.835938 -0.726562 87.019531 0 83.1875 0 L 26.375 0 C 23 0 20.6875 -0.675781 19.4375 -2.03125 C 18.195312 -3.382812 17.578125 -5.523438 17.578125 -8.453125 L 17.578125 -243.15625 C 17.578125 -248.34375 19.722656 -250.9375 24.015625 -250.9375 L 135.953125 -250.9375 C 154.890625 -250.9375 172.078125 -247.832031 187.515625 -241.625 C 202.960938 -235.425781 215.195312 -226.238281 224.21875 -214.0625 C 233.238281 -201.894531 237.75 -187.019531 237.75 -169.4375 Z M 159.28125 -170.453125 C 159.28125 -178.335938 156.570312 -184.703125 151.15625 -189.546875 C 145.75 -194.398438 139.101562 -196.828125 131.21875 -196.828125 L 102.125 -196.828125 C 99.195312 -196.828125 97.171875 -196.257812 96.046875 -195.125 C 94.921875 -194 94.359375 -192.195312 94.359375 -189.71875 L 94.359375 -151.515625 C 94.359375 -148.804688 94.804688 -146.882812 95.703125 -145.75 C 96.609375 -144.625 98.078125 -144.0625 100.109375 -144.0625 L 133.25 -144.0625 C 141.132812 -144.0625 147.441406 -146.597656 152.171875 -151.671875 C 156.910156 -156.742188 159.28125 -163.003906 159.28125 -170.453125 Z M 159.28125 -170.453125 "/></g></g></g><g fill="#ffffff" fill-opacity="1"><g transform="translate(296.686583, 480.395849)"><g><path d="M 14.546875 0 C 12.742188 0 11.273438 -0.617188 10.140625 -1.859375 C 9.015625 -3.097656 8.453125 -4.847656 8.453125 -7.109375 C 8.453125 -8.679688 8.789062 -10.484375 9.46875 -12.515625 L 91.3125 -243.15625 C 92.4375 -246.082031 93.675781 -248.109375 95.03125 -249.234375 C 96.382812 -250.367188 98.523438 -250.9375 101.453125 -250.9375 L 168.078125 -250.9375 C 170.785156 -250.9375 173.207031 -250.085938 175.34375 -248.390625 C 177.488281 -246.703125 179.125 -244.503906 180.25 -241.796875 L 261.421875 -11.5 C 261.867188 -9.695312 262.09375 -8.34375 262.09375 -7.4375 C 262.09375 -5.40625 261.640625 -3.65625 260.734375 -2.1875 C 259.835938 -0.726562 258.488281 0 256.6875 0 L 190.40625 0 C 186.570312 0 184.085938 -1.914062 182.953125 -5.75 L 169.765625 -44.640625 C 169.085938 -46.222656 168.46875 -47.296875 167.90625 -47.859375 C 167.34375 -48.421875 166.273438 -48.703125 164.703125 -48.703125 L 93 -48.703125 C 90.289062 -48.703125 88.597656 -47.460938 87.921875 -44.984375 L 74.0625 -5.078125 C 72.707031 -1.691406 70.003906 0 65.953125 0 Z M 147.78125 -106.1875 C 150.269531 -106.1875 151.515625 -107.316406 151.515625 -109.578125 C 151.515625 -110.023438 151.285156 -111.148438 150.828125 -112.953125 L 130.546875 -170.78125 C 130.085938 -171.90625 129.40625 -172.46875 128.5 -172.46875 C 127.601562 -172.46875 126.929688 -171.90625 126.484375 -170.78125 L 105.859375 -113.296875 C 105.398438 -112.390625 105.171875 -111.257812 105.171875 -109.90625 C 105.171875 -107.425781 106.523438 -106.1875 109.234375 -106.1875 Z M 147.78125 -106.1875 "/></g></g></g><g fill="#ffffff" fill-opacity="1"><g transform="translate(566.886979, 480.395849)"><g><path d="M 231.3125 -99.09375 C 231.3125 -62.113281 221.957031 -35.789062 203.25 -20.125 C 184.539062 -4.457031 157.820312 3.375 123.09375 3.375 C 84.09375 3.375 56.304688 -5.640625 39.734375 -23.671875 C 23.160156 -41.710938 14.875 -69.109375 14.875 -105.859375 L 14.875 -243.15625 C 14.875 -245.632812 15.4375 -247.550781 16.5625 -248.90625 C 17.695312 -250.257812 19.28125 -250.9375 21.3125 -250.9375 L 85.5625 -250.9375 C 89.625 -250.9375 91.65625 -248.566406 91.65625 -243.828125 L 91.65625 -97.734375 C 91.65625 -81.046875 94.863281 -68.984375 101.28125 -61.546875 C 107.707031 -54.109375 116.894531 -50.390625 128.84375 -50.390625 C 140.570312 -50.390625 150.039062 -54.109375 157.25 -61.546875 C 164.46875 -68.984375 168.078125 -81.382812 168.078125 -98.75 L 168.078125 -243.15625 C 168.078125 -248.34375 170.21875 -250.9375 174.5 -250.9375 L 225.234375 -250.9375 C 229.285156 -250.9375 231.3125 -248.566406 231.3125 -243.828125 Z M 231.3125 -99.09375 "/></g></g></g><g fill="#ffffff" fill-opacity="1"><g transform="translate(813.077094, 480.395849)"><g><path d="M 17.578125 -243.15625 C 17.578125 -245.632812 18.140625 -247.550781 19.265625 -248.90625 C 20.398438 -250.257812 21.984375 -250.9375 24.015625 -250.9375 L 88.265625 -250.9375 C 92.328125 -250.9375 94.359375 -248.566406 94.359375 -243.828125 L 94.359375 -60.203125 C 94.359375 -58.390625 94.640625 -57.144531 95.203125 -56.46875 C 95.765625 -55.800781 96.832031 -55.46875 98.40625 -55.46875 L 200.203125 -55.46875 C 205.390625 -55.46875 207.984375 -53.320312 207.984375 -49.03125 L 207.984375 -7.4375 C 207.984375 -5.1875 207.25 -3.382812 205.78125 -2.03125 C 204.320312 -0.675781 202.238281 0 199.53125 0 L 26.71875 0 C 23.332031 0 20.960938 -0.675781 19.609375 -2.03125 C 18.253906 -3.382812 17.578125 -5.523438 17.578125 -8.453125 Z M 17.578125 -243.15625 "/></g></g></g><g fill="#000000" fill-opacity="1"><g transform="translate(1255.839794, 489.549678)"><g><path d="M 66.625 -250.9375 C 93.457031 -250.9375 110.140625 -250.820312 116.671875 -250.59375 C 160.640625 -249.019531 193.894531 -237.128906 216.4375 -214.921875 C 238.988281 -192.710938 250.265625 -163.117188 250.265625 -126.140625 C 250.265625 -101.335938 245.191406 -79.46875 235.046875 -60.53125 C 224.898438 -41.59375 209.789062 -26.769531 189.71875 -16.0625 C 169.65625 -5.351562 145.195312 0 116.34375 0 L 27.390625 0 C 24.015625 0 21.535156 -0.785156 19.953125 -2.359375 C 18.367188 -3.941406 17.578125 -6.535156 17.578125 -10.140625 L 17.578125 -242.484375 C 17.578125 -245.640625 18.253906 -247.835938 19.609375 -249.078125 C 20.960938 -250.316406 23.332031 -250.9375 26.71875 -250.9375 Z M 97.734375 -197.84375 C 96.609375 -197.84375 95.765625 -197.503906 95.203125 -196.828125 C 94.640625 -196.148438 94.359375 -194.910156 94.359375 -193.109375 L 94.359375 -58.171875 C 94.359375 -56.140625 94.695312 -54.785156 95.375 -54.109375 C 96.050781 -53.429688 97.289062 -53.09375 99.09375 -53.09375 L 101.453125 -53.09375 C 123.773438 -53.09375 140.738281 -58.894531 152.34375 -70.5 C 163.957031 -82.113281 169.765625 -101 169.765625 -127.15625 C 169.765625 -149.707031 165.367188 -166.503906 156.578125 -177.546875 C 147.785156 -188.597656 134.9375 -194.910156 118.03125 -196.484375 Z M 97.734375 -197.84375 "/></g></g></g><g fill="#000000" fill-opacity="1"><g transform="translate(1516.583844, 489.549678)"><g><path d="M 17.578125 -243.15625 C 17.578125 -248.34375 19.722656 -250.9375 24.015625 -250.9375 L 206.625 -250.9375 C 210.6875 -250.9375 212.71875 -248.566406 212.71875 -243.828125 L 212.375 -204.609375 C 212.375 -198.515625 209.445312 -195.46875 203.59375 -195.46875 L 102.125 -195.46875 C 96.945312 -195.46875 94.359375 -193.328125 94.359375 -189.046875 L 94.359375 -160.296875 C 94.359375 -158.046875 94.921875 -156.300781 96.046875 -155.0625 C 97.171875 -153.820312 98.632812 -153.203125 100.4375 -153.203125 L 161.3125 -153.203125 C 166.050781 -153.203125 168.421875 -150.945312 168.421875 -146.4375 L 168.421875 -104.5 C 168.421875 -100.664062 166.390625 -98.75 162.328125 -98.75 L 99.765625 -98.75 C 98.179688 -98.75 96.882812 -98.296875 95.875 -97.390625 C 94.863281 -96.492188 94.359375 -95.367188 94.359375 -94.015625 L 94.359375 -60.203125 C 94.359375 -58.390625 94.640625 -57.144531 95.203125 -56.46875 C 95.765625 -55.800781 96.832031 -55.46875 98.40625 -55.46875 L 208.328125 -55.46875 C 213.285156 -55.46875 215.765625 -53.320312 215.765625 -49.03125 L 215.765625 -7.4375 C 215.765625 -5.1875 215.085938 -3.382812 213.734375 -2.03125 C 212.378906 -0.675781 210.347656 0 207.640625 0 L 26.71875 0 C 23.332031 0 20.960938 -0.675781 19.609375 -2.03125 C 18.253906 -3.382812 17.578125 -5.523438 17.578125 -8.453125 Z M 17.578125 -243.15625 "/></g></g></g><g fill="#000000" fill-opacity="1"><g transform="translate(1743.508956, 489.549678)"><g><path d="M 239.09375 -250.9375 C 241.125 -250.9375 242.757812 -250.316406 244 -249.078125 C 245.238281 -247.835938 245.859375 -246.203125 245.859375 -244.171875 C 245.859375 -242.816406 245.75 -241.800781 245.53125 -241.125 L 167.0625 -8.453125 C 165.488281 -2.816406 161.316406 0 154.546875 0 L 99.765625 0 C 93.003906 0 88.832031 -2.816406 87.25 -8.453125 L 8.796875 -241.125 C 8.335938 -242.476562 8.109375 -243.492188 8.109375 -244.171875 C 8.109375 -246.203125 8.785156 -247.835938 10.140625 -249.078125 C 11.492188 -250.316406 13.1875 -250.9375 15.21875 -250.9375 L 80.484375 -250.9375 C 84.773438 -250.9375 87.59375 -248.566406 88.9375 -243.828125 L 134.265625 -95.375 C 134.710938 -93.789062 135.273438 -93 135.953125 -93 C 136.398438 -93 136.960938 -93.898438 137.640625 -95.703125 L 179.921875 -243.828125 C 180.367188 -246.085938 181.4375 -247.835938 183.125 -249.078125 C 184.820312 -250.316406 186.679688 -250.9375 188.703125 -250.9375 Z M 239.09375 -250.9375 "/></g></g></g></svg>